<svg width="14" height="12" viewBox="0 0 14 12" fill="none" xmlns="http://www.w3.org/2000/svg">
<g clip-path="url(#clip0_2159_411)">
<path d="M6.84015 9.33581C6.79253 9.23348 6.38725 8.33173 6.84015 7.68531C6.90094 7.59818 6.98909 7.50091 7.11472 7.41074C7.37511 7.4847 7.75709 7.55563 8.20087 7.48774C8.43188 7.45228 8.55954 7.39858 8.94759 7.24559C10.3904 6.67921 10.7106 6.61437 10.9659 6.58498C11.1472 6.56371 11.4319 6.54547 11.7906 6.58498C12.2486 6.4016 12.7076 6.21821 13.1655 6.03482C12.7076 5.85143 12.2486 5.66804 11.7906 5.48465C11.4309 5.52417 11.1472 5.50593 10.9659 5.48465C10.7106 5.45527 10.3914 5.39043 8.94759 4.82405C8.55954 4.67207 8.43188 4.61736 8.20087 4.5819C7.7581 4.51401 7.37511 4.58494 7.11472 4.6589C6.98807 4.56872 6.90094 4.47146 6.84015 4.38432C6.38725 3.73892 6.79253 2.83717 6.84015 2.73383C6.47337 2.00027 6.10659 1.26672 5.73982 0.53418V3.00942C5.6851 3.02968 5.37304 3.14822 5.22309 3.48967C5.09644 3.77843 5.16837 4.03984 5.18965 4.10873C4.94851 4.24146 4.63645 4.43397 4.29703 4.70449C4.15822 4.81493 3.99408 4.93854 3.94038 5.00136C3.57664 5.42893 3.45405 5.07431 2.80054 4.87572C2.71543 4.85039 2.57865 4.88889 2.5057 4.94665C1.99606 5.35496 0.750842 5.88892 0.513754 6.03279C0.749828 6.17768 1.99606 6.71062 2.5057 7.11894C2.57865 7.1777 2.71543 7.21621 2.80054 7.18986C3.45405 6.99128 3.57664 6.63666 3.94038 7.06423C3.99408 7.12806 4.15822 7.25065 4.29703 7.36109C4.63645 7.63162 4.94851 7.82412 5.18965 7.95685C5.16837 8.02676 5.09745 8.28817 5.22309 8.57591C5.37203 8.91736 5.68409 9.03692 5.73982 9.05617V11.5314C6.10659 10.7979 6.47337 10.0643 6.84015 9.33176V9.33581Z" fill="white"/>
</g>
<defs>
<clipPath id="clip0_2159_411">
<rect width="12.6508" height="11.0003" fill="white" transform="matrix(-1 0 0 1 13.1655 0.53418)"/>
</clipPath>
</defs>
</svg>
