<svg width="320" height="95" viewBox="0 0 320 95" fill="none" xmlns="http://www.w3.org/2000/svg">
<path d="M69.1706 8.41653C69.8826 7.88053 69.8362 7.57813 69.6778 7.32853C69.4362 6.94453 69.089 6.93493 68.3546 7.29013C68.0778 7.42453 67.817 7.59573 67.5418 7.77813L67.2682 7.95733C65.6602 8.98933 64.289 10.3605 62.9626 11.6869L62.3978 12.2501C59.0282 15.5909 55.2106 19.3781 52.585 24.0021L52.433 24.2677C52.0522 24.9285 51.6906 25.5525 51.6378 26.2789C51.5994 26.8133 51.6426 27.0693 51.9994 27.1733C52.2938 27.2565 52.4538 27.1317 52.7546 26.7333C52.8826 26.5637 52.9994 26.3845 53.1194 26.2037C53.4586 25.6885 53.8442 25.1061 54.521 24.6021L54.9226 24.3029L54.9866 24.7989C55.0058 24.9525 55.0266 25.0805 55.0442 25.1909C55.0762 25.3989 55.1018 25.5637 55.1018 25.7365C55.0938 32.5525 55.0826 39.3669 55.0634 46.1829C55.0634 46.6037 55.017 46.9605 54.9258 47.2725C54.7626 47.8293 54.5322 48.4133 54.0474 48.5285C53.5642 48.6405 53.0938 48.2245 52.6986 47.8005C51.3498 46.3493 50.2666 45.2949 49.1866 44.3845C45.7418 41.4821 41.777 39.0341 37.4026 37.1093C36.5658 36.7413 36.1786 36.1045 36.185 35.1045C36.193 33.5973 36.1866 32.0885 36.177 30.5813V30.4485C36.1482 26.5237 36.121 22.4629 37.5642 18.5845C38.913 14.9605 40.809 11.8581 43.1994 9.36053C45.6442 6.80693 48.9722 3.55893 53.0394 1.09333L53.1594 1.02133C53.6826 0.710931 53.8858 0.536531 53.7946 0.258131C53.7082 -0.00426926 53.481 -0.0314693 52.8842 0.0261307L52.6746 0.0453307C52.2298 0.0773307 51.9082 0.157331 51.6938 0.290131L50.5962 0.963731C49.0186 1.92853 47.3882 2.92533 45.857 4.00373C42.5914 6.30293 39.425 8.58293 36.577 11.1973C31.945 15.4501 27.8586 19.3685 24.7738 24.2741C23.6922 25.9941 22.5738 27.7717 22.113 29.7861C21.9322 30.5749 21.9274 30.9541 22.3642 31.0949C22.6858 31.1973 22.833 31.0357 23.1418 30.4549C23.1802 30.3829 23.217 30.3125 23.2554 30.2437C24.0042 28.9157 24.8538 27.4117 26.297 26.4245C26.9338 25.9893 27.4842 25.8645 27.9338 26.0597C28.401 26.2597 28.705 26.7813 28.8394 27.6101C28.9546 28.3253 28.9914 29.0533 29.0266 29.7573C29.0858 30.9461 29.1418 32.0677 29.5418 33.1653C29.5914 33.3013 29.7418 33.7141 29.4858 33.9861C29.233 34.2533 28.793 34.1605 28.4858 34.0677C27.0218 33.6261 25.5914 33.2229 24.1818 33.1461C20.0474 32.9237 16.1242 33.5701 12.5274 35.0709C12.0634 35.2629 11.7754 35.4949 11.6682 35.7557C11.585 35.9573 11.6026 36.1941 11.7226 36.4773C11.9322 36.9749 12.2154 36.9221 12.9146 36.6565L13.1098 36.5829C14.7594 35.9877 16.3962 35.6277 17.9754 35.5141C18.2794 35.4917 18.5818 35.4821 18.881 35.4821C21.3946 35.4821 23.7754 36.2069 26.0858 36.9093C26.5226 37.0421 26.961 37.1749 27.401 37.3045C29.257 37.8469 29.6202 38.7861 29.665 40.4373C29.8986 48.8965 29.3578 57.2341 28.7834 65.0501C28.6538 66.8261 28.241 68.1349 27.4842 69.1701C24.8586 72.7653 21.985 76.5557 18.3034 79.8965C14.2682 83.5589 9.92742 87.4069 5.11942 90.6789C4.14022 91.3461 2.83942 92.1957 1.46342 92.8581L1.22182 92.9717C0.231423 93.4325 -0.176577 93.7045 0.0682226 94.3621C0.266623 94.8949 0.693823 94.8549 1.55462 94.6469C1.73702 94.6021 1.91622 94.5605 2.08422 94.5333C2.10662 94.5285 2.14502 94.5125 2.18342 94.4965C2.22662 94.4773 2.27142 94.4597 2.31622 94.4453C5.46342 93.4165 8.24262 91.5573 10.9322 89.7589L11.377 89.4613C14.2698 87.5285 17.0394 85.2949 19.7178 83.1349L20.6794 82.3605C23.2474 80.2933 25.9754 78.0517 28.529 75.6629C33.0218 71.4581 36.745 67.5909 39.9114 63.8389L40.0682 63.6549C40.6634 62.9605 41.1754 62.3621 40.8362 61.5733C40.6186 61.0677 40.185 61.0805 39.4986 61.1461C39.2874 61.1653 39.0698 61.1861 38.8634 61.1781C36.665 61.0965 36.1594 60.5909 36.1546 58.4725C36.145 53.3845 36.1578 48.7493 36.1946 44.3029C36.1946 44.1269 36.1722 43.9349 36.1498 43.7397C36.0746 43.0949 35.9818 42.2917 36.7226 41.8869C37.3802 41.5269 37.8282 42.0453 38.153 42.4245C38.305 42.6021 38.4618 42.7845 38.6186 42.8709C41.2122 44.2997 43.3498 46.3461 45.4154 48.3269L45.7514 48.6485C48.5258 51.3029 50.5882 54.4229 52.2394 57.1221C54.3514 60.5765 55.4826 63.8997 55.6986 67.2789C55.7962 68.8069 55.793 70.3605 55.7898 71.8629C55.7882 72.8197 55.785 73.7781 55.809 74.7349C55.8346 75.8229 56.3482 76.0101 56.7306 76.0549C57.2858 76.1173 57.4058 75.8709 57.6074 75.1413L57.657 74.9669C58.7706 71.0949 60.6378 66.2437 65.2426 63.0725L65.321 63.0197C66.0346 62.5301 66.4554 62.1877 66.273 61.5637C66.1386 61.1013 65.8554 61.0773 65.1898 61.1365C65.0058 61.1541 64.8234 61.1685 64.6586 61.1605C61.9962 61.0517 61.0058 60.0197 61.0074 57.3525C61.0074 55.6309 61.025 53.9109 61.041 52.1877C61.0746 48.5669 61.1114 44.8245 60.9946 41.1509C60.897 38.0549 61.113 34.9301 61.321 31.9077C61.5354 28.7877 61.7578 25.5621 61.6346 22.3813C61.473 18.2533 62.7786 14.7653 65.5114 12.0165C65.8762 11.6501 66.2282 11.2693 66.5802 10.8901C67.3738 10.0325 68.1946 9.14773 69.1674 8.41653H69.1706Z" fill="white"/>
<path d="M141.136 75.1765L141.222 75.1605C141.526 75.1061 141.827 75.0405 142.128 74.9765C142.856 74.8181 143.608 74.6549 144.405 74.6549C144.461 74.6549 144.518 74.6549 144.574 74.6565C145.32 74.6789 146.064 74.6933 146.808 74.7061C149.219 74.7509 151.712 74.7973 154.189 75.1445C159.638 75.9109 164.403 77.0453 168.758 78.6085C172.347 79.8981 175.502 80.8325 178.401 81.4661C182.179 82.2901 185.592 82.9733 189.109 83.0085C190.11 83.0181 191.104 83.1765 192.064 83.3301C193.425 83.5477 194.713 83.7541 196.04 83.5781C197.654 83.3653 199.302 83.2053 200.896 83.0501C205.112 82.6389 209.47 82.2149 213.584 80.7861C215.321 80.1829 217.333 79.4581 219.187 78.4997C219.374 78.4037 219.966 78.0389 219.755 77.3957C219.673 77.1445 219.485 76.9013 218.723 76.9925C218.152 77.0613 217.521 77.2053 216.795 77.4341C216.179 77.6293 215.566 77.8485 214.955 78.0693C213.941 78.4341 212.889 78.8117 211.84 79.0629C209.185 79.6997 206.491 80.0101 203.494 80.3237C199.563 80.7349 195.582 80.3637 191.734 80.0053C190.789 79.9173 189.843 79.8293 188.897 79.7509C188.787 79.7429 188.678 79.7157 188.569 79.6869C188.525 79.6741 188.48 79.6629 188.435 79.6533C185.83 79.1045 183.173 78.4997 180.536 77.8533C177.704 77.1589 174.904 76.2293 171.974 75.0101C167.918 73.3205 164.792 71.5989 162.136 69.5909C159.475 67.5781 157.041 65.1365 157.249 60.9285C157.381 58.2949 157.344 55.6021 157.307 52.9989C157.291 51.8517 157.275 50.7029 157.273 49.5557V47.3845C157.269 45.1397 157.269 42.8949 157.241 40.6501C157.235 40.0213 157.366 39.5957 157.656 39.3093C157.931 39.0373 158.336 38.9109 158.891 38.9237C159.969 38.9477 161.046 38.9525 162.125 38.9557C162.897 38.9589 163.669 38.9621 164.441 38.9717H164.534C164.904 38.9733 165.461 38.9765 165.734 39.5221C166.014 40.0821 165.638 40.4229 165.413 40.6245C165.352 40.6789 165.291 40.7333 165.241 40.7925C164.406 41.8069 163.641 42.5749 162.837 43.2101C162.197 43.7141 161.92 44.0245 162.112 44.3781C162.342 44.8037 162.689 44.7349 163.433 44.4037L163.566 44.3445C166.272 43.1717 168.465 41.7845 170.275 40.1029C173.528 37.0805 176.085 34.0133 178.091 30.7237L178.193 30.5589C178.598 29.9141 178.813 29.4949 178.381 29.1285C178.209 28.9829 177.688 28.5381 176.734 29.5413C176.464 29.8261 176.182 30.1013 175.902 30.3765C175.694 30.5797 175.488 30.7829 175.285 30.9893C173.365 32.9477 171.313 34.2789 169.016 35.0613C167.021 35.7413 164.952 35.7669 162.952 35.7909C161.737 35.8053 160.481 35.8213 159.269 35.9845C158.582 36.0773 158.085 35.9765 157.742 35.6757C157.377 35.3541 157.213 34.8373 157.219 34.0469C157.265 29.2757 157.261 24.3573 157.201 19.0133C157.193 18.2517 157.336 17.7685 157.662 17.4437C157.982 17.1269 158.459 16.9893 159.181 16.9973C161.513 17.0373 163.888 17.0293 166.182 17.0229C167.209 17.0181 168.237 17.0181 169.262 17.0165C169.691 17.0325 170.166 17.0021 170.619 16.9893C171.675 16.9557 172.768 16.9237 173.83 17.0757C175.309 17.2901 176.304 17.5717 176.696 18.3205C177.025 18.9509 176.872 19.8325 176.197 21.1781C175.947 21.6773 175.632 22.2021 175.208 22.8325C172.701 26.5429 170.248 29.2773 167.489 31.4373C166.941 31.8661 166.68 32.1637 166.867 32.5045C167.097 32.9237 167.641 32.7589 168.056 32.5445C173.035 29.9925 177.209 26.2981 180.462 21.5653C183.054 17.7941 184.912 13.4581 185.985 8.67574L186.07 8.30454C186.433 6.70614 186.811 5.05494 186.27 3.42294L186.23 3.29654C186.107 2.90454 186.062 2.86134 185.854 2.86774C185.545 2.88374 185.358 3.03254 185.264 3.33494C185.179 3.60854 185.078 3.88214 184.979 4.15574C184.774 4.71574 184.579 5.24534 184.512 5.78774C184.003 9.92214 180.281 14.1333 174.387 13.7957C172.016 13.6597 169.59 13.6949 167.245 13.7285C166.27 13.7429 165.294 13.7573 164.32 13.7589V13.7797H161.141C158.254 13.7765 155.366 13.7781 152.48 13.7813H152.421C151.768 13.7813 151.15 13.7813 150.552 13.9861C147.083 15.1653 144.241 17.2197 142.104 20.0933C141.968 20.2757 141.825 20.4549 141.681 20.6341C141.211 21.2229 140.725 21.8325 140.52 22.5605C140.416 22.9301 140.448 23.2053 140.617 23.4037C140.67 23.4661 140.697 23.4581 140.713 23.4613C140.777 23.4613 140.877 23.4053 140.961 23.3189C141.507 22.7685 142.182 22.4581 142.835 22.1573C143.425 21.8869 143.981 21.6309 144.427 21.2149C145.584 20.1381 147.163 19.8517 148.55 20.4661C149.617 20.9381 150.131 22.0997 150.12 24.0149C150.117 24.6053 150.112 25.1941 150.105 25.7845C150.083 28.2181 150.061 30.7333 150.184 33.1957C150.278 35.0981 149.582 36.1061 147.854 36.5653C146.777 36.8517 146.099 37.7669 145.445 38.6501L145.326 38.8101C145.094 39.1205 145.089 39.5365 145.313 39.8453C145.432 40.0069 145.454 40.0197 145.766 39.8245C145.881 39.7525 146 39.6789 146.134 39.6357C146.353 39.5653 146.566 39.4789 146.779 39.3941C147.337 39.1701 147.925 38.9413 148.598 38.9525C149.32 38.9701 150.15 39.1509 150.182 40.4069C150.213 41.6085 150.307 42.8325 150.4 44.0165C150.478 45.0149 150.558 46.0469 150.598 47.0581C150.795 51.9621 150.787 56.9509 150.779 61.7781C150.776 63.8341 150.773 65.8901 150.784 67.9461C150.79 69.0853 150.189 69.6709 149.285 70.1989C147.942 70.9829 146.469 71.4517 145.043 71.9061C143.619 72.3589 142.145 72.8293 140.841 73.6085C140.734 73.6725 140.622 73.7333 140.51 73.7925C139.862 74.1397 139.632 74.3157 139.784 74.8101C139.937 75.3029 140.325 75.3205 141.134 75.1733L141.136 75.1765Z" fill="white"/>
<path d="M66.4653 67.4807C66.5005 67.6855 66.5485 67.8887 66.5965 68.0919C66.6797 68.4503 66.7661 68.8199 66.7949 69.2135C66.9933 71.9719 67.8365 74.7559 69.3021 77.4887C70.0909 78.9591 71.0077 80.3943 71.8941 81.7815C73.3149 84.0039 74.7837 86.3015 75.7917 88.8407C76.0733 89.5495 76.4109 89.9527 76.7949 90.0407C77.2237 90.1351 77.7917 89.8631 78.4781 89.2247C80.6621 87.1943 82.1197 84.7239 83.3693 82.3543C85.4413 78.4279 86.4461 74.0487 86.4397 68.9671C86.4317 62.4599 86.4397 55.9511 86.4461 49.4439L86.4589 39.8247C86.4637 39.4119 86.4685 39.0215 86.4221 38.6359C86.3741 38.2359 86.2381 37.9607 86.0493 37.8807C85.8653 37.8023 85.5949 37.8887 85.2877 38.1207C84.8845 38.4263 84.4941 38.7479 84.1037 39.0711C83.6397 39.4535 83.1613 39.8471 82.6669 40.2103C81.2157 41.2743 80.5805 42.6775 80.6045 44.7655C80.6381 47.6247 80.6349 50.5335 80.6317 53.3447C80.6285 55.9399 80.6253 58.6247 80.6525 61.2631C80.6653 62.5207 80.5421 63.7223 78.9325 64.5815C76.9981 65.6151 76.4221 65.6647 75.2013 63.7751C74.7149 63.0231 74.4813 62.2983 74.4861 61.5623C74.4973 60.0903 74.4893 58.6183 74.4813 57.1463C74.4621 53.6135 74.4429 49.9623 74.6925 46.3703C74.8173 44.5815 74.7053 42.7623 74.5981 41.0023C74.5389 40.0487 74.4797 39.0631 74.4557 38.0887C74.4429 37.5287 74.3069 37.1575 74.0733 37.0439C73.8093 36.9127 73.3453 37.0727 72.8013 37.4791C72.6173 37.6167 72.4253 37.7463 72.2333 37.8759C71.8541 38.1319 71.4957 38.3735 71.1997 38.6727C70.9005 38.9735 70.5773 39.2599 70.2621 39.5351C69.1149 40.5463 68.0301 41.5031 68.0381 43.2183C68.0557 47.1191 68.0557 51.0199 68.0557 54.9223V60.3015C68.0589 60.9303 68.1469 61.4215 68.3453 61.8919C69.4525 64.5207 71.2525 66.8375 74.1853 69.4023C74.9805 70.0967 75.7789 70.1527 76.7789 69.5767C77.8301 68.9719 78.8733 68.3255 80.0701 67.0599L80.5757 66.5255L80.5789 69.4583C80.5821 70.9415 80.5853 72.2871 80.5725 73.6343C80.5517 75.8471 79.4973 77.6679 78.4765 79.4295L78.1229 80.0439C77.8685 80.4887 77.5709 80.7223 77.2349 80.7383C76.8845 80.7511 76.5517 80.5335 76.2397 80.0823C75.5725 79.1239 74.7997 78.2135 74.0509 77.3351C73.1597 76.2887 72.2397 75.2055 71.4733 74.0151L70.9741 73.2455C69.7485 71.3607 68.4813 69.4135 67.8349 67.1623C67.8061 67.0615 67.7805 66.9591 67.7565 66.8567C67.6877 66.5703 67.6173 66.2759 67.4733 66.1879C67.4333 66.1639 67.3789 66.1511 67.3117 66.1511C67.2525 66.1511 67.1837 66.1607 67.1053 66.1799C66.5325 66.3207 66.3709 66.9351 66.4653 67.4807Z" fill="white"/>
<path d="M208.739 61.0976C208.814 61.1088 208.816 61.6272 209.157 62.3632C210.259 64.7376 211.768 66.88 212.958 68.4784C213.473 69.1696 213.928 69.5104 214.35 69.52C214.784 69.5248 215.281 69.184 215.865 68.4672C216.357 67.864 216.941 67.2544 217.605 66.6576C218.105 66.2048 218.573 66.0096 219.03 66.056C219.485 66.1024 219.896 66.384 220.285 66.9152C221.005 67.8976 221.933 68.6784 223.045 69.2336C223.345 69.384 224.049 69.7328 224.238 69.632C224.422 69.5296 224.494 68.7664 224.525 68.4416C224.793 65.5872 224.774 62.7712 224.755 60.048C224.745 58.7648 224.737 57.552 224.76 56.3856C224.76 55.3696 224.741 54.4128 224.721 53.4976C224.683 51.584 224.645 49.7776 224.811 48.0224C225.085 45.1264 224.126 43.0368 221.795 41.4416C221.312 41.112 220.841 40.7536 220.385 40.408C220.001 40.1184 219.619 39.8272 219.225 39.5488C218.605 39.112 217.992 39.1184 217.408 39.5728C214.363 41.9328 211.758 44.7728 209.665 48.0144C209.417 48.3968 209.525 48.5952 209.829 48.9552C210.241 49.4464 210.675 49.696 211.117 49.6976H211.125C211.696 49.6976 212.333 49.2976 213.017 48.5056C214.459 46.8384 216.035 45.6544 217.838 44.8832L217.976 44.8208C218.291 44.6736 218.769 44.4528 219.217 44.9456C219.641 45.4112 219.601 49.5104 219.168 49.9312C218.971 50.1232 218.624 50.3248 218.302 50.304C217.622 50.232 216.973 50.4016 216.286 50.5792C215.651 50.7424 214.995 50.9088 214.301 50.8848C213.821 50.864 213.435 51.024 213.07 51.376C211.997 52.4112 211.113 53.6384 210.259 54.8256C209.893 55.3344 209.528 55.8432 209.145 56.3392C208.859 56.7136 208.55 57.1792 208.558 58.1808L208.742 61.0976H208.739ZM205.024 60.144C204.977 60.1552 204.8 60.2976 204.705 60.3728C204.637 60.4272 204.571 60.4816 204.507 60.5264L204 60.8832C203.005 61.5776 201.974 62.296 201.185 63.2336C200.813 63.6784 200.203 64.2384 199.245 63.9952C197.659 63.5904 195.195 61.5312 195.043 59.512C194.982 58.6992 194.913 57.888 194.846 57.0752C194.577 53.8752 194.301 50.5664 194.453 47.28C194.485 46.576 194.632 46.0128 195.241 45.5504C195.744 45.1696 196.232 44.768 196.72 44.3664C197.273 43.9104 197.846 43.44 198.433 43.0048C199.209 42.4304 199.944 42.7824 200.533 43.064C200.742 43.1648 200.939 43.2592 201.128 43.3136C201.333 43.3728 201.486 43.504 201.573 43.696C201.736 44.0544 201.621 44.5488 201.459 44.8928C200.96 45.9536 200.619 47.096 200.289 48.2016C200.173 48.5936 200.056 48.984 199.933 49.3744C199.603 50.4144 199.998 50.8032 200.693 51.0688C201.337 51.312 201.616 50.9424 202.057 50.0944C202.491 49.2608 202.899 48.3952 203.293 47.5568C203.973 46.1104 204.677 44.6128 205.547 43.216C205.886 42.672 206.302 42.2 206.705 41.744C207.169 41.2192 207.606 40.7248 207.928 40.136C208.489 39.1088 208.033 38.4032 207.118 37.5968C206.833 37.3456 206.577 37.2272 206.347 37.2576C205.971 37.2928 205.619 37.6896 205.355 38.0304C204.409 39.2496 203.145 39.5296 201.489 38.8848C201.097 38.7328 200.755 38.6544 200.445 38.6544C200.024 38.6544 199.662 38.7968 199.32 39.0864C198.257 39.984 197.142 40.8496 196.065 41.688C194.286 43.0704 192.446 44.5008 190.803 46.0992C190.149 46.7344 189.886 47.336 189.894 48.1712C189.902 49.0624 189.917 49.9536 189.933 50.8464C189.979 53.5648 190.027 56.3776 189.867 59.136C189.689 62.2128 190.149 64.4176 192.982 65.9088C194.205 66.552 195.325 67.4128 196.406 68.2448C196.998 68.6992 197.609 69.1696 198.229 69.5968C199.259 70.3056 199.808 69.8128 200.129 69.3792C201.859 67.0592 203.901 64.7808 206.752 61.9888C207.349 61.4048 207.449 58.9072 207.376 58.5792L205.024 60.1392V60.144ZM219.505 57.2976C219.504 57.4736 219.501 57.6496 219.499 57.8256L219.505 58.8448C219.505 59.416 219.507 59.9872 219.505 60.5584C219.496 62.368 218.851 63.2528 217.128 63.8256C217.032 63.8576 216.856 63.9168 216.653 63.9168C216.371 63.9168 216.04 63.8032 215.806 63.3456L215.752 63.2368C215.667 63.0656 215.587 62.9024 215.481 62.7888C213.616 60.7984 213.573 58.8976 215.352 56.9808C215.625 56.6864 215.793 56.2912 215.973 55.8736C216.181 55.3856 216.397 54.8832 216.8 54.4816L216.926 54.3536C217.382 53.8928 218.005 53.2576 218.813 53.5056C219.625 53.752 219.555 54.5056 219.509 55.0048C219.494 55.1552 219.48 55.3024 219.488 55.4352C219.525 56.0576 219.517 56.6864 219.509 57.296L219.505 57.2976Z" fill="white"/>
<path d="M126.201 60.6099L126.242 61.8771C126.601 63.5603 126.535 65.0947 126.54 66.6179C126.54 67.0851 126.543 67.5507 126.559 68.0163C126.58 68.5971 126.756 69.0147 127.042 69.1635C127.282 69.2883 127.618 69.2211 127.989 68.9747C130.109 67.5763 131.86 66.1939 131.801 63.4067C131.756 61.3811 131.778 59.3203 131.801 57.3283C131.831 54.4867 131.861 51.5491 131.701 48.6755C131.564 46.1923 132.857 44.6723 134.108 43.2035C134.383 42.8803 134.658 42.5571 134.922 42.2195C135.095 41.9987 135.423 41.8787 135.657 41.8771H135.684C136.511 41.8771 137.346 42.3507 137.98 43.1795C138.706 44.1299 138.989 45.3059 138.719 46.2499C138.29 47.7475 138.156 49.4131 138.319 51.1955C138.367 51.7219 138.655 51.9795 139.197 51.9843C139.724 51.9811 139.953 51.7699 140.052 51.1827C140.298 49.7283 140.821 48.2755 141.749 46.4707C141.994 45.9939 142.284 45.5443 142.564 45.1107C142.946 44.5171 143.341 43.9043 143.612 43.2323C144.012 42.2451 143.805 41.6531 142.853 41.0467C142.498 40.8211 142.141 40.5987 141.785 40.3779C141.079 39.9395 140.349 39.4867 139.65 39.0083C136.345 36.7427 135.681 36.8483 133.191 40.0259L133.13 40.0979C133.106 40.1267 133.069 40.1683 133.063 40.1843C132.906 40.5971 132.692 40.8371 132.404 40.9203C132.002 41.0339 131.617 40.8003 131.258 40.5299C130.089 39.6499 128.989 38.9139 127.898 38.2787L127.709 38.1651C127.249 37.8835 127.034 37.7891 126.754 37.9731C126.156 38.3715 125.906 38.8499 126.012 39.3971C126.261 40.6899 126.244 41.9987 126.228 43.2643C126.223 43.6435 126.218 44.0227 126.22 44.4019C126.242 48.7667 126.242 53.3603 126.215 58.8595C126.215 58.9411 126.22 59.0307 126.225 59.1235L126.199 60.6115L126.201 60.6099ZM125.277 60.1683C123.541 61.0355 121.799 61.3203 120.364 62.2099C119.94 62.4723 119.501 62.7443 119.061 62.9843L118.716 63.1731C116.253 64.5203 116.124 64.5011 114.087 62.4899L113.786 62.1939C112.065 60.5027 111.772 58.6659 111.861 56.4307C111.908 55.2787 112.442 54.7891 113.593 54.7971C114.389 54.8131 115.186 54.8051 115.985 54.7971C117.071 54.7875 118.194 54.7763 119.3 54.8275C120.237 54.8595 120.831 54.5091 121.343 53.5843C122.583 51.3363 123.41 48.8851 124.085 46.7635C124.413 45.7363 124.605 44.7011 123.789 44.0867C122.705 43.2691 121.681 42.3539 120.69 41.4691C119.407 40.3219 118.079 39.1363 116.621 38.1683C116.175 37.8723 115.772 37.7235 115.397 37.7235C115.047 37.7235 114.722 37.8531 114.412 38.1139C112.333 39.8531 110.245 41.6547 108.228 43.3987L107.338 44.1667C106.845 44.5907 106.618 45.1379 106.62 45.8851C106.629 48.6675 106.623 51.4499 106.617 54.2307C106.613 55.7315 106.61 57.2323 106.609 58.7347V58.8595C106.605 59.3267 106.604 59.7667 106.865 60.1011L108.308 61.9555C110.025 64.1635 111.801 66.4483 113.605 68.6435C113.972 69.0883 114.418 69.3539 114.865 69.3891C115.263 69.4227 115.65 69.2739 116.015 68.9523C118.516 66.7475 121.189 64.8611 124.02 62.8659C124.535 62.5027 124.674 62.4291 124.964 61.7955L125.281 60.1699L125.277 60.1683ZM111.909 44.4915C111.922 43.6339 114.146 41.3475 115.001 41.3139C115.484 41.2947 115.783 41.6451 115.994 41.9011L116.047 41.9651C116.569 42.5875 117.081 43.2179 117.591 43.8467C117.996 44.3459 118.401 44.8435 118.81 45.3379C119.172 45.7763 119.178 46.2643 119.181 46.6979L119.186 46.9235V46.9379C119.103 48.2339 118.513 49.3219 117.941 50.3731C117.713 50.7955 117.474 51.2323 117.279 51.6707C117.087 52.0995 116.692 52.3139 116.098 52.3139C115.921 52.3139 115.725 52.2947 115.511 52.2563C115.201 52.2003 114.895 52.1219 114.589 52.0451C114.05 51.9075 113.54 51.7779 112.999 51.7651C112.495 51.7523 111.893 51.4931 111.892 50.3171V49.3955C111.887 47.7875 111.884 46.1251 111.906 44.4899L111.909 44.4915Z" fill="white"/>
<path d="M295.181 45.8304C295.204 50.5776 295.216 55.3248 295.229 60.0704L295.252 68.248C295.252 68.736 295.25 69.2416 295.359 69.6912C295.415 69.9216 295.53 70.224 295.764 70.3536C295.919 70.4416 296.125 70.4432 296.373 70.3616C298.432 69.6832 300.487 66.8416 300.52 64.624C300.56 61.9888 300.46 59.3072 300.362 56.7136C300.24 53.4736 300.112 50.1232 300.261 46.8208C300.364 44.5456 299.98 42.76 297.776 41.4432C297.429 41.2352 297.124 41.048 296.852 40.88C295.501 40.0512 294.183 40.1424 292.898 41.1536L292.517 41.4528C292.458 41.4992 292.404 41.5472 292.348 41.5968C292.252 41.68 292.156 41.7632 292.052 41.8352C289.114 43.8368 288.962 43.8144 286.647 41.0448L286.559 40.9328C285.242 39.3952 284.655 39.3536 283.072 40.6864C282.808 40.9072 282.556 41.16 282.311 41.4032C281.799 41.912 281.271 42.44 280.573 42.7824C280.26 42.9376 279.925 43.1008 279.62 42.9408C279.408 42.8304 279.279 42.5984 279.223 42.2304C279.181 41.9488 279.2 41.656 279.22 41.3728C279.266 40.7088 279.269 40.2896 278.807 40.016C278.392 39.7712 278.037 39.9376 277.495 40.2304C277.199 40.3904 276.892 40.5552 276.551 40.6144C276.484 40.6272 276.416 40.6336 276.348 40.64C276.279 40.6464 276.21 40.6512 276.144 40.6688C274.042 41.2608 272.461 42.6704 270.895 44.1856C270.6 44.4704 270.632 44.8176 270.988 45.2192C271.348 45.6256 271.668 45.712 272.056 45.512C272.255 45.4096 272.442 45.2768 272.64 45.136C272.72 45.08 272.799 45.024 272.88 44.9696C273.245 44.7232 273.557 44.6 273.823 44.6C273.949 44.6 274.066 44.6288 274.172 44.6832C274.506 44.8592 274.674 45.272 274.684 45.9488C274.688 46.3392 274.692 46.7296 274.692 47.12L274.704 52.1776C274.719 57.7424 274.733 63.3056 274.757 68.8704C274.757 68.9904 274.752 69.1152 274.746 69.2416C274.714 69.904 274.722 70.2896 275.255 70.4992C275.871 70.7424 276.272 70.4176 276.863 69.8592L276.978 69.7504C277.172 69.568 277.357 69.376 277.543 69.1824C277.863 68.8496 278.194 68.5056 278.572 68.216C279.461 67.5328 279.831 66.6976 279.812 65.4176C279.762 62.2608 279.756 59.0528 279.749 55.9488C279.746 54.6272 279.744 53.3056 279.738 51.984C279.738 51.8608 279.738 51.736 279.741 51.6112C279.751 51.064 279.759 50.5456 279.549 50.0848C278.666 48.1504 279.767 46.8288 280.671 46.0016C281.34 45.3904 281.97 44.8672 282.597 44.4032C282.717 44.3136 282.839 44.2032 282.962 44.0896C283.402 43.6896 283.949 43.1904 284.599 43.5104C285.176 43.7952 285.1 44.4736 285.039 45.0176C285.018 45.2064 284.997 45.3856 285.002 45.536C285.069 47.8224 285.042 50.1472 285.016 52.3952C284.972 56.216 284.925 60.1648 285.343 64.0304C285.472 65.224 285.495 66.4288 285.516 67.5952C285.527 68.2096 285.538 68.8256 285.565 69.44L285.568 69.512C285.581 69.8208 285.597 70.2032 285.759 70.3344C285.848 70.4048 286.004 70.4224 286.224 70.3824C287.263 70.1984 289.498 67.408 289.5 66.2912C289.504 64.1616 289.503 62.032 289.503 59.904V57.68H289.464L289.468 54.8224C289.471 52.6624 289.474 50.5008 289.456 48.3392C289.448 47.4016 289.628 46.2512 291.088 45.6512C291.405 45.5216 291.692 45.2832 291.994 45.0304C292.18 44.8752 292.367 44.72 292.564 44.584C292.68 44.504 292.797 44.3936 292.922 44.2752C293.304 43.9104 293.829 43.4096 294.608 43.8336C295.311 44.2176 295.25 44.9264 295.205 45.4448C295.194 45.5744 295.183 45.704 295.183 45.8256L295.181 45.8304Z" fill="white"/>
<path d="M102.179 39.3267C102.081 39.2499 101.982 39.1763 101.881 39.1011C101.622 38.9091 101.355 38.7107 101.131 38.4611C100.761 38.0467 100.417 37.8451 100.1 37.8547C99.7738 37.8691 99.4282 38.1187 99.0714 38.5987C98.385 39.5203 97.545 40.2963 96.7322 41.0483C96.241 41.5011 95.7354 41.9699 95.273 42.4595L95.2026 42.5379C95.0282 42.7347 94.705 43.0979 94.2298 42.9011C93.7754 42.7139 93.7818 42.2675 93.785 42.0019C93.785 41.9555 93.785 41.9123 93.785 41.8691C93.7754 41.5731 93.7722 41.2771 93.7722 40.9811C93.7674 39.8787 93.761 38.8371 93.313 37.8179C93.1866 37.5283 93.0522 37.3539 92.9354 37.3251C92.8298 37.2963 92.6634 37.3763 92.4506 37.5459C92.0042 37.9011 91.5738 38.2755 91.1418 38.6515C90.7002 39.0355 90.2442 39.4323 89.7754 39.8035C88.5882 40.7443 88.0906 41.8883 88.113 43.6275C88.1786 48.5987 88.1674 53.6531 88.1578 58.5411C88.1546 60.2867 88.1498 62.0323 88.1498 63.7779H88.161V67.9507C88.161 71.1827 88.161 74.4163 88.161 77.6499C88.1626 80.3251 88.169 83.0019 88.1866 85.6771V85.8099C88.185 86.2691 88.1994 86.5571 88.5002 86.7187C88.7802 86.8707 88.9818 86.7555 89.3754 86.4643L89.5082 86.3667C90.5034 85.6547 91.4762 84.9555 92.4442 84.2307C92.8394 83.9347 93.145 83.6771 93.201 83.2947C93.2522 82.9459 93.3066 82.5987 93.3626 82.2499C93.5242 81.2355 93.6922 80.1859 93.7258 79.1603C93.7674 77.8403 93.7594 76.4947 93.7514 75.1939C93.7434 73.9107 93.7354 72.5843 93.7754 71.2787C93.7914 70.7619 93.6698 70.2739 93.5418 69.7571C93.4122 69.2371 93.2794 68.7011 93.2954 68.1283C93.2986 68.0435 93.2906 67.9539 93.2842 67.8627C93.2586 67.5123 93.2218 66.9827 93.7402 66.6819C94.2938 66.3619 94.7082 66.7059 94.9818 66.9347C95.0522 66.9939 95.1226 67.0531 95.1946 67.0995C96.0666 67.6579 96.7914 68.1379 97.4906 68.6627C97.8394 68.9251 98.1322 69.0307 98.3834 68.9875C98.6794 68.9363 98.9706 68.6755 99.3226 68.1395C99.833 67.3667 100.379 66.6019 100.905 65.8627C101.286 65.3299 101.665 64.7971 102.036 64.2563L102.281 63.8995C103.801 61.6931 105.238 59.6083 105.015 56.6627C104.726 52.8483 104.734 49.0051 105.041 45.2403C105.236 42.8499 104.379 41.0819 102.179 39.3315V39.3267ZM99.8778 54.4947C99.825 59.3155 99.7962 59.3955 96.7322 63.0035L96.6858 63.0579C96.3706 63.4307 96.0906 63.6131 95.7882 63.6131C95.5242 63.6131 95.2442 63.4723 94.9066 63.1939C93.681 62.1811 93.1626 60.9859 93.2282 59.3139C93.3338 56.6051 93.3018 53.8403 93.2714 51.1667L93.2538 49.5683C93.2458 48.6931 93.5098 48.0611 94.1386 47.4515C94.8458 46.7667 95.5178 46.0179 96.169 45.2947C96.5738 44.8435 96.9802 44.3923 97.3962 43.9507C97.4394 43.9059 97.481 43.8563 97.5258 43.8083C97.8122 43.4819 98.2442 42.9907 98.9338 43.2851C99.3482 43.4627 99.8426 43.8819 99.8426 44.8755C99.841 46.5571 99.841 48.2387 99.8426 49.9203V51.4291L99.8794 51.7219V52.5955C99.8826 53.2275 99.8842 53.8611 99.8794 54.4931L99.8778 54.4947Z" fill="white"/>
<path d="M233.442 69.4342C233.57 69.5462 233.698 69.6582 233.825 69.7414C234.057 69.895 234.282 70.0582 234.51 70.2198C234.83 70.4486 235.159 70.6854 235.497 70.8886C236.233 71.3318 236.726 71.2166 237.201 70.4902C238.01 69.2518 238.986 67.8038 240.076 66.4502C242.046 64.0038 242.878 61.5254 242.69 58.6518C242.462 55.1318 242.538 51.5382 242.61 48.063C242.625 47.3542 242.641 46.6438 242.652 45.935C242.681 44.335 242.084 43.087 240.778 42.0054C240.577 41.839 240.362 41.6838 240.15 41.5286C239.77 41.255 239.38 40.9702 239.05 40.6182C238.714 40.2598 238.426 40.0854 238.167 40.0854C237.878 40.0854 237.548 40.303 237.1 40.7862C236.057 41.911 234.935 42.9926 233.85 44.0374C233.39 44.4822 232.929 44.9254 232.473 45.3734L232.318 45.527L231.585 45.1222V44.9494C231.585 44.6806 231.591 44.4118 231.599 44.1414C231.614 43.5574 231.63 42.9526 231.569 42.3766C231.534 42.0502 231.574 41.6966 231.614 41.3542C231.71 40.4998 231.738 39.9622 231.129 39.7222C231.02 39.679 230.916 39.6582 230.817 39.6582C230.407 39.6582 230.049 39.9974 229.562 40.5078C229.321 40.7622 229.07 41.0262 228.793 41.2198C227.092 42.4102 226.375 43.9734 226.401 46.4454C226.5 56.3574 226.49 66.4342 226.481 76.1814C226.478 79.7478 226.474 83.3126 226.476 86.8774C226.476 87.3654 226.476 87.9174 226.538 88.4438C226.558 88.6054 226.609 88.719 226.689 88.7798C226.806 88.8678 226.996 88.8598 227.135 88.8342C228.916 88.5382 231.569 85.4502 231.57 83.6726C231.57 82.1014 231.57 80.5286 231.57 78.9574C231.569 76.247 231.567 73.5366 231.577 70.8262C231.577 70.687 231.558 70.5302 231.538 70.3718C231.476 69.8502 231.398 69.2006 231.954 68.9302C232.543 68.6454 233.046 69.0806 233.449 69.431L233.442 69.4342ZM231.625 63.8422C231.55 63.5862 231.55 63.3174 231.55 63.079C231.546 59.1526 231.546 55.2678 231.553 51.3814V51.2742C231.55 50.8486 231.546 50.319 232.007 49.9398C232.594 49.4566 233.025 48.8438 233.479 48.1958C233.946 47.5318 234.43 46.8422 235.1 46.3014C235.212 46.2118 235.322 46.0902 235.439 45.9606C235.774 45.5926 236.234 45.0918 236.903 45.375C237.639 45.6886 238.116 46.4998 238.119 47.4438C238.126 49.0054 238.124 50.567 238.122 52.127V53.7094L238.145 54.0006C238.145 54.327 238.127 54.6566 238.11 54.9862C238.071 55.6934 238.036 56.3622 238.17 56.9926C238.855 60.2038 237.114 62.3302 235.431 64.3878C235.156 64.7238 234.882 65.0582 234.618 65.399C234.532 65.511 234.345 65.6742 233.991 65.6742C233.916 65.6742 233.833 65.6662 233.74 65.6486C232.95 65.4998 231.878 64.6934 231.626 63.8406L231.625 63.8422Z" fill="white"/>
<path d="M317.581 42.0346C315.848 40.2442 313.64 39.177 311.7 39.2506C309.172 39.3114 307.183 40.5786 305.077 41.921C304.741 42.1354 304.405 42.3498 304.068 42.5578C303.111 43.1482 302.719 43.9466 302.751 45.2298C302.81 47.5242 302.799 49.857 302.788 52.113C302.783 53.0346 302.778 53.9546 302.778 54.8762L302.768 55.169V64.9546C302.768 65.729 302.813 66.361 303.397 66.8394C305.284 68.385 307.348 69.761 309.344 71.0906L309.757 71.3658C310.354 71.7626 310.698 71.7226 311.296 71.1898C313.132 69.553 314.685 67.6058 316.188 65.721C316.818 64.9306 317.471 64.113 318.136 63.3274C319.397 61.8394 319.93 60.1642 319.866 57.8954C319.762 54.193 319.804 50.7946 319.989 47.5098C320.092 45.7194 319.212 43.7258 317.578 42.0378L317.581 42.0346ZM311.202 67.5738C310.917 67.8282 310.532 67.9562 310.103 67.9562C309.752 67.9562 309.372 67.8698 308.991 67.697C308.184 67.329 307.378 66.5274 307.392 65.5706C307.412 64.3706 307.392 63.1482 307.372 61.9658C307.327 59.281 307.282 56.505 307.685 53.753C307.938 52.0282 307.895 50.2186 307.855 48.4682C307.834 47.5834 307.812 46.6698 307.829 45.7738C307.866 43.7178 310 41.6474 312.071 41.6474H312.109C313.888 41.6698 315.098 42.8906 315.116 44.6842C315.136 46.6714 315.132 48.6586 315.127 50.6458L315.124 52.8666L315.164 53.1562C315.164 53.9066 315.151 54.6586 315.138 55.4106C315.111 57.0618 315.084 58.7706 315.194 60.4346C315.42 63.8058 313.276 65.7226 311.2 67.5754L311.202 67.5738Z" fill="white"/>
<path d="M169.037 58.5126C168.986 58.3718 168.909 58.159 168.832 58.1286C168.824 58.1254 168.813 58.1238 168.799 58.1238C168.756 58.1238 168.684 58.1414 168.583 58.191C168.116 58.423 167.975 58.799 168.164 59.3046C168.276 59.6086 168.384 59.911 168.493 60.215C168.874 61.2822 169.232 62.2902 169.781 63.271C172.032 67.3046 175.06 68.7686 179.306 67.8742C179.626 67.807 179.909 67.6582 180.208 67.4998C180.46 67.367 180.719 67.2294 181.012 67.1382C185.032 65.8806 188.834 62.0454 188.324 57.151C188.276 56.7382 188.293 56.3158 188.311 55.9078C188.346 55.1062 188.38 54.3494 187.92 53.7334C186.06 51.2422 184.144 49.903 181.711 49.3958C179.874 49.0118 178.005 48.8422 175.996 48.8678C175.596 48.8678 175.112 48.8342 174.908 48.4806C174.704 48.1318 174.908 47.7062 175.077 47.4166C175.29 47.0566 175.498 46.6918 175.704 46.3286C176.044 45.7334 176.394 45.119 176.762 44.527C177.223 43.7862 177.869 43.6406 178.631 44.1094C179.184 44.4486 179.775 44.759 180.346 45.0598C180.957 45.3814 181.591 45.7142 182.191 46.0886C182.762 46.4438 182.975 46.3702 183.212 46.0838L184.173 44.9286C185.445 43.4022 186.759 41.8262 187.973 40.2198C188.178 39.9478 188.397 39.5494 188.271 39.1926C188.156 38.8662 187.765 38.6022 187.172 38.4518C186.285 38.2262 185.92 38.711 185.424 39.5382C185.372 39.6246 185.322 39.7094 185.269 39.791C184.917 40.351 184.5 40.6902 184.029 40.7958C183.543 40.9062 183.018 40.775 182.421 40.3974C181.62 39.8902 180.725 39.4566 179.604 39.0294C178.015 38.423 177.535 38.5894 176.591 40.071L175.903 41.1478C174.52 43.3142 173.092 45.5542 171.636 47.7254C170.944 48.7542 170.853 50.1782 171.388 51.5334C171.932 52.9126 173.004 53.9094 174.255 54.199C175.928 54.5862 177.674 54.5974 179.362 54.607C180.424 54.6134 181.524 54.6214 182.604 54.719C184.74 54.9158 185.888 55.6854 186.327 57.2182C186.776 58.7862 186.077 60.5526 184.549 61.7174C183.623 62.4246 182.567 62.6438 181.546 62.855C181.327 62.9014 181.108 62.9462 180.893 62.9958C177.207 63.8534 171.98 64.3478 169.159 58.8038C169.116 58.7174 169.077 58.615 169.039 58.511L169.037 58.5126Z" fill="white"/>
<path d="M265.568 51.8452L265.473 51.8196C263.27 51.226 260.993 50.61 258.654 50.9028C258.236 50.9556 257.652 50.978 257.406 50.5844C257.134 50.1492 257.528 49.5444 257.656 49.346C258.171 48.5556 258.633 47.7108 259.035 46.8324C259.188 46.4964 259.444 46.034 259.899 45.8916C260.244 45.7812 260.643 45.8692 261.148 46.1684C261.721 46.506 262.332 46.81 262.923 47.1028C263.569 47.4244 264.238 47.7572 264.868 48.1396C265.264 48.3796 265.384 48.3028 265.603 48.0468L266.51 46.9828C267.854 45.4084 269.243 43.7812 270.58 42.1588C270.801 41.89 270.904 41.5988 270.867 41.3396C270.835 41.122 270.707 40.9364 270.486 40.7876C270.084 40.5156 269.632 40.2084 269.286 40.2788C269.126 40.3108 268.985 40.426 268.852 40.6276C268.091 41.8004 267.259 42.4436 266.31 42.5924C265.299 42.7508 264.192 42.33 262.928 41.3028C262.864 41.25 262.745 41.2164 262.62 41.1828C262.518 41.154 262.414 41.1236 262.318 41.082C260.667 40.3684 260.297 40.4756 259.28 41.978C258.574 43.0196 257.883 44.0724 257.192 45.1252C256.195 46.642 255.164 48.2116 254.104 49.7252C253.321 50.8404 253.26 52.434 253.942 53.8836C254.576 55.2292 255.699 56.0916 256.945 56.1908C258.035 56.2772 259.15 56.3284 260.227 56.378C261.96 56.458 263.75 56.5412 265.512 56.7716C266.614 56.9156 267.75 57.1492 268.473 58.2516C269.038 59.1108 269.187 60.2084 268.883 61.258C268.536 62.4596 267.667 63.4532 266.5 63.9828C265.814 64.2948 265.083 64.5172 264.376 64.7316C264.155 64.7988 263.936 64.866 263.718 64.9348C261.265 65.7156 258.982 65.8036 256.928 65.1956C254.139 64.37 252.408 62.874 251.638 60.6244C251.547 60.3556 251.419 60.1716 251.286 60.1172C251.27 60.1108 251.24 60.098 251.188 60.098C251.134 60.098 251.056 60.1124 250.952 60.1652C250.561 60.362 250.428 60.7428 250.596 61.1844C250.745 61.5764 250.889 61.9732 251.032 62.3716C251.755 64.3876 252.504 66.4724 254.219 67.8516L254.692 68.2356C256.548 69.7508 258.3 71.1828 260.947 70.0516C261.579 69.7812 262.416 69.4388 263.276 69.1908C267.95 67.8468 271.041 63.9108 270.966 59.3956V59.3812V59.3668C271.316 55.2708 268.505 52.6372 265.564 51.8436L265.568 51.8452Z" fill="white"/>
<path d="M249.694 47.5628C249.737 45.302 249.782 42.9628 249.674 40.6636C249.644 40.006 249.513 39.6012 249.263 39.3884C249.039 39.198 248.679 39.134 248.159 39.1932C247.94 39.2188 247.724 39.2124 247.514 39.2044C247.426 39.2012 247.337 39.198 247.249 39.198H246.831C246.529 39.2044 246.226 39.206 245.924 39.1948C245.898 39.1948 245.874 39.1932 245.85 39.1932C245.553 39.1932 245.332 39.2588 245.196 39.3884C245.047 39.5308 244.969 39.7788 244.962 40.126C244.924 42.7612 244.764 45.5644 244.476 48.6956C244.222 51.4508 244.279 54.2892 244.334 57.0348C244.356 58.1356 244.378 59.238 244.382 60.3372C244.383 60.934 244.407 61.5628 244.57 62.1292C245.114 64.0252 245.113 65.9612 244.566 67.8812C244.385 68.518 244.37 69.1436 244.382 69.6716C244.398 70.4588 244.457 70.9884 245.11 71.1788C245.684 71.3452 246.1 71.0188 246.55 70.4764C246.774 70.206 246.99 69.9292 247.207 69.6508C247.586 69.1676 247.977 68.6668 248.404 68.206C249.284 67.2556 249.67 66.1756 249.655 64.7036C249.607 59.7164 249.574 53.822 249.686 47.91L249.692 47.5612L249.694 47.5628Z" fill="white"/>
<path d="M250.19 31.2215C249.571 30.5639 248.929 29.8839 248.235 29.3079C247.735 28.8935 247.238 28.6631 246.846 28.6631C246.804 28.6631 246.766 28.6647 246.727 28.6711C246.475 28.7047 246.265 28.8439 246.086 29.0951C245.687 29.6583 245.23 30.1719 244.787 30.6711C244.228 31.2999 243.702 31.8919 243.275 32.5799C242.993 33.0327 242.777 33.4343 242.98 33.7671C243.867 35.2071 245.217 36.2759 246.523 37.3079L246.787 37.5175C246.827 37.5495 246.987 37.5591 247.092 37.5671C247.169 37.5719 247.247 37.5767 247.324 37.5879C247.404 37.5735 247.489 37.5623 247.575 37.5527C247.695 37.5383 247.895 37.5159 247.939 37.4727C248.303 37.0967 248.692 36.7351 249.07 36.3863C250.009 35.5159 250.897 34.6951 251.491 33.5991C251.739 33.1415 251.673 32.7351 251.287 32.3575C250.911 31.9895 250.55 31.6055 250.188 31.2215H250.19Z" fill="white"/>
</svg>
