<svg width="21" height="33" viewBox="0 0 21 33" fill="none" xmlns="http://www.w3.org/2000/svg">
<path d="M8.74381 1.28829C9.55594 1.14285 10.422 1.53574 10.4954 1.3544C10.5325 1.26468 10.3244 1.09751 10.2909 1.07107C9.84956 0.729181 8.07571 -0.287986 5.95898 0.0784587C2.81641 0.622459 0.0715319 4.01302 0.00462911 7.36202C-0.0111674 8.17707 -0.0446188 9.83363 1.01561 10.9575C1.94016 11.9379 3.09238 11.8727 3.59601 12.8917C4.00672 13.721 3.7103 14.7079 3.43804 15.3511C4.47318 14.8977 5.52969 15.03 6.06584 15.6495C6.18199 15.7836 6.36783 16.05 6.4338 16.4995C6.36783 16.9491 6.18199 17.2154 6.06584 17.3495C5.52969 17.9691 4.47318 18.1013 3.43804 17.648C3.70937 18.2902 4.00579 19.2771 3.59601 20.1073C3.09145 21.1264 1.94016 21.0612 1.01561 22.0415C-0.0446188 23.1654 -0.0111674 24.822 0.00462911 25.637C0.0715319 28.986 2.81641 32.3766 5.95898 32.9196C8.07664 33.2861 9.84956 32.2689 10.2909 31.927C10.3244 31.9006 10.5325 31.7344 10.4954 31.6437C10.422 31.4624 9.55594 31.8552 8.74381 31.7098C7.83505 31.5474 7.05544 30.721 6.77854 29.9295C6.30279 28.5667 7.11491 26.7212 8.90735 25.8684C7.41226 26.1281 6.19314 27.1217 5.76385 28.4647C5.39031 29.6301 5.73969 30.6586 5.87814 31.0109C5.51854 30.8844 4.51035 30.4754 3.92959 29.4299C3.06079 27.864 3.85247 26.1319 3.96212 25.9015C4.81234 24.1221 6.29442 24.3875 6.8027 22.8641C7.26358 21.4834 6.22566 20.7287 6.58341 19.2866C6.91699 17.9407 8.20022 17.0671 9.43049 16.4986C8.20022 15.93 6.91699 15.0564 6.58341 13.7106C6.22566 12.2684 7.26358 11.5138 6.8027 10.133C6.29442 8.60963 4.81234 8.87502 3.96212 7.09568C3.85247 6.86618 3.06079 5.13313 3.92959 3.56724C4.50942 2.52174 5.51854 2.11279 5.87814 1.98624C5.73969 2.33851 5.39031 3.36701 5.76385 4.53246C6.19407 5.87546 7.41226 6.86902 8.90735 7.12874C7.11491 6.27685 6.30371 4.43046 6.77854 3.06763C7.05451 2.27618 7.83505 1.44979 8.74381 1.28735V1.28829Z" fill="white"/>
<path d="M17.4038 20.1063C16.9931 19.2771 17.2895 18.2902 17.5617 17.647C16.5266 18.1003 15.4701 17.9681 14.934 17.3486C14.8178 17.2145 14.632 16.9481 14.566 16.4986C14.632 16.049 14.8178 15.7827 14.934 15.6486C15.4701 15.029 16.5266 14.8968 17.5617 15.3501C17.2904 14.7079 16.994 13.721 17.4038 12.8908C17.9083 11.8717 19.0596 11.9369 19.9842 10.9566C21.0444 9.83268 21.011 8.17518 20.9952 7.36107C20.9283 4.01207 18.1834 0.621514 15.0408 0.0784587C12.9231 -0.287986 11.1502 0.729181 10.7089 1.07107C10.6754 1.09751 10.4673 1.26374 10.5044 1.3544C10.5778 1.53574 11.4439 1.14285 12.256 1.28829C13.1647 1.45074 13.9443 2.27713 14.2213 3.06857C14.697 4.4314 13.8849 6.27685 12.0924 7.12968C13.5875 6.86996 14.8066 5.8764 15.2359 4.5334C15.6095 3.36796 15.2601 2.33946 15.1217 1.98718C15.4813 2.11374 16.4894 2.52268 17.0702 3.56818C17.939 5.13407 17.1473 6.86618 17.0377 7.09663C16.1874 8.87596 14.7054 8.61057 14.1971 10.134C13.7362 11.5147 14.7741 12.2693 14.4164 13.7115C14.0828 15.0573 12.7996 15.931 11.5693 16.4995C12.7996 17.0681 14.0828 17.9417 14.4164 19.2875C14.7741 20.7297 13.7362 21.4843 14.1971 22.8651C14.7054 24.3885 16.1874 24.1231 17.0377 25.9024C17.1473 26.1319 17.939 27.865 17.0702 29.4308C16.4904 30.4763 15.4813 30.8853 15.1217 31.0118C15.2601 30.6596 15.6095 29.6311 15.2359 28.4656C14.8057 27.1226 13.5875 26.1291 12.0924 25.8693C13.8849 26.7212 14.6961 28.5676 14.2213 29.9305C13.9453 30.7219 13.1647 31.5483 12.256 31.7107C11.4439 31.8562 10.5778 31.4633 10.5044 31.6446C10.4673 31.7343 10.6754 31.9015 10.7089 31.928C11.1502 32.2698 12.9241 33.287 15.0408 32.9206C18.1834 32.3775 20.9283 28.987 20.9952 25.638C21.011 24.8229 21.0444 23.1663 19.9842 22.0425C19.0596 21.0621 17.9074 21.1273 17.4038 20.1082V20.1063Z" fill="white"/>
</svg>
