<svg width="21" height="33" viewBox="0 0 21 33" fill="none" xmlns="http://www.w3.org/2000/svg">
<path d="M2.94652 13.4438C2.85048 11.9931 4.06348 11.082 4.18282 10.9952C4.9315 10.4528 5.73519 10.3903 6.07084 10.3837C5.82656 9.96552 4.34971 7.34611 5.52355 4.59133C5.97015 3.54207 6.6545 2.82047 7.16543 2.37892C7.10296 2.91382 7.08152 3.5542 7.16543 4.2674C7.37241 6.02333 8.11457 7.33957 8.63762 8.09944C8.38775 7.54681 7.82367 6.09614 8.18449 4.2674C8.61151 2.10447 10.052 0.835834 10.5005 0.469899C10.9489 0.835834 12.3894 2.10447 12.8164 4.2674C13.1773 6.09614 12.6132 7.54681 12.3633 8.09944C12.8864 7.3405 13.6285 6.02426 13.8355 4.2674C13.9194 3.55327 13.898 2.91382 13.8355 2.37892C14.3474 2.82047 15.0308 3.543 15.4774 4.59133C16.6512 7.34611 15.1744 9.96552 14.9301 10.3837C15.2648 10.3903 16.0694 10.4528 16.8181 10.9952C16.9375 11.082 18.1504 11.9922 18.0544 13.4438C18.0022 14.2307 17.591 14.7843 17.4036 15.0074C18.4013 15.5049 19.3979 16.0025 20.3956 16.5001C20.1317 15.5488 19.8912 14.4996 19.7019 13.3588C19.4343 11.742 19.3234 10.2558 19.3 8.94427C19.6478 9.38955 20.0674 10.0262 20.3946 10.8514C20.8133 11.9063 20.9112 12.8454 20.9233 13.4774C21.2048 10.787 20.652 8.72863 20.2268 7.55614C19.8222 6.43874 18.0973 1.68159 13.5996 0.345743C12.367 -0.0201916 11.2603 -0.0304601 10.4995 0.0246167C9.73966 -0.0304601 8.63202 -0.0201916 7.40038 0.345743C2.9027 1.68159 1.17877 6.43874 0.773194 7.55708C0.34804 8.72956 -0.204847 10.7879 0.0767243 13.4783C0.0888449 12.8463 0.186742 11.9072 0.60537 10.8524C0.932627 10.0271 1.35219 9.39142 1.69996 8.9452C1.67758 10.2568 1.56663 11.7429 1.29811 13.3598C1.10884 14.4996 0.868295 15.5498 0.604438 16.501C1.60206 16.0034 2.59875 15.5059 3.59637 15.0083C3.40896 14.7852 2.9978 14.2316 2.94558 13.4447L2.94652 13.4438Z" fill="white"/>
<path d="M20.3947 22.1486C20.0674 22.9739 19.6479 23.6096 19.3001 24.0558C19.3225 22.7442 19.4334 21.2581 19.7019 19.6412C19.8912 18.5014 20.1317 17.4512 20.3956 16.5C19.398 16.9976 18.4013 17.4951 17.4037 17.9927C17.5911 18.2158 18.0022 18.7694 18.0545 19.5563C18.1505 21.007 16.9375 21.9181 16.8182 22.0049C16.0695 22.5473 15.2658 22.6098 14.9301 22.6163C15.1744 23.0345 16.6513 25.654 15.4774 28.4087C15.0308 29.458 14.3465 30.1796 13.8355 30.6211C13.898 30.0862 13.9195 29.4459 13.8355 28.7327C13.6286 26.9767 12.8864 25.6605 12.3634 24.9006C12.6132 25.4533 13.1773 26.9039 12.8165 28.7327C12.3895 30.8956 10.949 32.1642 10.5005 32.5302C10.052 32.1642 8.61156 30.8956 8.18454 28.7327C7.82372 26.9039 8.38779 25.4533 8.63766 24.9006C8.11461 25.6596 7.37245 26.9758 7.16547 28.7327C7.08156 29.4468 7.103 30.0862 7.16547 30.6211C6.65361 30.1796 5.97019 29.4571 5.52359 28.4087C4.34976 25.654 5.82661 23.0345 6.07089 22.6163C5.73617 22.6098 4.93155 22.5473 4.18286 22.0049C4.06352 21.9181 2.85053 21.0079 2.94656 19.5563C2.99877 18.7694 3.40994 18.2158 3.59735 17.9927C2.59972 17.4951 1.60304 16.9976 0.605414 16.5C0.869271 17.4512 1.10982 18.5005 1.29909 19.6412C1.56667 21.2581 1.67762 22.7442 1.70093 24.0558C1.35316 23.6105 0.933604 22.9739 0.606347 22.1486C0.187719 21.0938 0.0898215 20.1547 0.0777008 19.5227C-0.203871 22.2131 0.349017 24.2714 0.774171 25.4439C1.17881 26.5613 2.90367 31.3185 7.40136 32.6543C8.633 33.0203 9.73971 33.0305 10.5005 32.9754C11.2604 33.0305 12.368 33.0203 13.5997 32.6543C18.0973 31.3185 19.8222 26.5613 20.2268 25.4439C20.652 24.2714 21.2049 22.2131 20.9233 19.5227C20.9112 20.1547 20.8133 21.0938 20.3947 22.1486Z" fill="white"/>
</svg>
