<svg width="21" height="33" viewBox="0 0 21 33" fill="none" xmlns="http://www.w3.org/2000/svg">
<path d="M20.9982 16.4931H20.9928C20.7752 15.9378 20.3554 15.0956 19.5528 14.3292C17.906 12.7571 15.871 12.674 15.313 12.6704C17.1945 13.329 18.361 14.3137 18.2788 15.1805C18.2463 15.5222 18.0297 15.7432 17.9728 15.7998C17.0672 16.6968 14.356 16.0309 12.8745 14.3813C11.6394 13.0065 11.5771 11.3029 11.5491 10.5384C11.522 9.79848 11.4019 6.95309 13.3593 5.61215C13.5715 5.46691 14.6314 4.77543 15.9847 5.01932C17.9466 5.37191 18.7303 7.36506 18.789 7.52126C19.5663 9.59478 18.2734 11.4135 18.1768 11.545C19.9139 9.7656 20.108 8.1086 20.1396 7.52126C20.3472 3.69573 16.1328 0.266649 12.4655 0.0154509C11.819 -0.0293081 11.2737 0.0309795 10.8891 0.0967478C12.2353 1.13808 12.9756 2.43609 12.6731 3.43266C12.6406 3.54136 12.4032 4.32145 11.7676 4.44476C11.3216 4.53063 10.8223 2.43883 10.4973 1.95013C10.1723 2.43974 9.673 4.53154 9.227 4.44476C8.5914 4.32236 8.35486 3.54136 8.32145 3.43266C8.0199 2.437 8.76023 1.13899 10.1055 0.0967478C9.72085 0.0309795 9.17554 -0.0293081 8.52911 0.0154509C4.86449 0.266649 0.650043 3.69573 0.858598 7.52034C0.890198 8.10769 1.08431 9.76377 2.82137 11.5441C2.72476 11.4135 1.4328 9.59478 2.20924 7.52034C2.26793 7.36414 3.05159 5.37191 5.01346 5.01841C6.36771 4.77452 7.42674 5.466 7.63891 5.61124C9.59626 6.95218 9.47618 9.79757 9.4491 10.5375C9.42111 11.302 9.35881 13.0056 8.12373 14.3803C6.64217 16.03 3.93095 16.6959 3.02541 15.7989C2.96853 15.7432 2.75185 15.5222 2.71935 15.1796C2.63719 14.3127 3.80365 13.328 5.68517 12.6695C5.12631 12.6731 3.09222 12.7571 1.44544 14.3283C0.64282 15.0947 0.223001 15.9359 0.00541702 16.4922H0C0 16.4922 0.00180567 16.4968 0.00270851 16.4995C0.00180567 16.5023 0.000902837 16.5041 0 16.5069H0.00541702C0.223001 17.0622 0.64282 17.9044 1.44544 18.6699C3.09222 20.2419 5.12721 20.3251 5.68517 20.3296C3.80365 19.671 2.63719 18.6863 2.71935 17.8195C2.75185 17.4778 2.96853 17.2568 3.02541 17.2002C3.93095 16.3032 6.64217 16.9691 8.12373 18.6187C9.35881 19.9935 9.42111 21.6971 9.4491 22.4616C9.47618 23.2015 9.59626 26.0469 7.63891 27.3878C7.42674 27.5331 6.36681 28.2246 5.01346 27.9807C3.05159 27.6281 2.26793 25.6349 2.20924 25.4787C1.4319 23.4052 2.72476 21.5865 2.82137 21.455C1.08431 23.2353 0.890198 24.8914 0.858598 25.4787C0.650043 29.3043 4.86449 32.7324 8.53181 32.9845C9.17825 33.0293 9.72356 32.969 10.1082 32.9032C8.76204 31.8619 8.02171 30.5639 8.32416 29.5673C8.35666 29.4586 8.59411 28.6785 9.22971 28.5552C9.67571 28.4694 10.175 30.5612 10.5 31.0499C10.825 30.5603 11.3243 28.4685 11.7703 28.5552C12.4059 28.6776 12.6424 29.4586 12.6758 29.5673C12.9774 30.563 12.2371 31.861 10.8918 32.9032C11.2764 32.969 11.8218 33.0293 12.4682 32.9845C16.1346 32.7333 20.3491 29.3043 20.1414 25.4787C20.1098 24.8914 19.9157 23.2353 18.1786 21.455C18.2752 21.5856 19.5672 23.4043 18.7908 25.4787C18.7321 25.6349 17.9484 27.6281 15.9865 27.9807C14.6323 28.2246 13.5733 27.5331 13.3611 27.3878C11.4037 26.0469 11.5238 23.2015 11.5509 22.4616C11.5789 21.6971 11.6412 19.9935 12.8763 18.6187C14.3578 16.9691 17.069 16.3032 17.9746 17.2002C18.0315 17.2559 18.2482 17.4769 18.2807 17.8195C18.3628 18.6863 17.1963 19.671 15.3148 20.3296C15.8737 20.326 17.9078 20.2419 19.5546 18.6699C20.3572 17.9035 20.777 17.0622 20.9946 16.5069H21C21 16.5069 20.9982 16.5023 20.9973 16.4995C20.9982 16.4968 20.9991 16.495 21 16.4922L20.9982 16.4931ZM10.4991 19.5934C9.45903 19.4061 8.55168 17.5692 8.55168 16.5005C8.55168 15.4317 9.45813 13.5939 10.4991 13.4075C11.5392 13.5948 12.4465 15.4317 12.4465 16.5005C12.4465 17.5692 11.5392 19.407 10.4991 19.5934Z" fill="white"/>
</svg>
