<svg width="21" height="33" viewBox="0 0 21 33" fill="none" xmlns="http://www.w3.org/2000/svg">
<path d="M6.30912 16.4994C7.16272 15.3544 8.141 13.7758 8.87541 11.7553C9.52821 9.95902 10.4286 7.442 9.70424 4.66651C9.44936 3.68916 9.09729 3.07588 8.97901 2.87949C8.62694 2.2903 7.49554 0.398591 5.30333 0.054897C3.72633 -0.193378 1.81285 0.394885 0.783223 1.93363C0.654863 2.12632 -0.611317 4.06342 0.370637 5.8171C0.929003 6.8139 1.89812 7.228 2.26028 7.3614C1.1353 6.48966 0.681451 5.00187 1.12888 3.69286C1.68633 2.06333 3.44394 1.47692 4.64503 1.56029C5.35742 1.60939 5.91671 1.92344 6.07807 2.01423C6.07807 2.01423 6.90233 2.47836 7.50195 3.42699C8.97993 5.76244 8.2932 11.0753 6.73363 11.4227C6.44298 11.4876 6.11842 11.3801 5.90295 11.2041C5.38676 10.7817 5.32533 9.8071 5.73242 8.7019C5.53896 8.88626 4.89258 9.5477 4.76605 10.6205C4.60468 11.9888 5.41702 12.9467 5.54996 13.0977C4.44607 12.1083 2.98368 11.935 1.98064 12.5659C1.20406 13.055 0.967511 13.8832 0.903331 14.1538C0.97943 14.0481 1.50571 13.345 2.37489 13.3163C2.45557 13.3135 2.8379 13.3061 3.33025 13.5729C3.68783 13.7656 4.47449 14.8245 5.01635 16.4994C4.47449 18.1743 3.68783 19.2323 3.33025 19.4259C2.83698 19.6918 2.45557 19.6844 2.37489 19.6825C1.50571 19.6538 0.97943 18.9506 0.903331 18.845C0.967511 19.1146 1.20406 19.9437 1.98064 20.4329C2.98368 21.0638 4.44607 20.8905 5.54996 19.9011C5.41702 20.0521 4.60468 21.01 4.76605 22.3783C4.89258 23.4511 5.53896 24.1116 5.73242 24.2969C5.32625 23.1917 5.38676 22.2171 5.90295 21.7947C6.1175 21.6187 6.44298 21.5121 6.73363 21.5761C8.2932 21.9235 8.97901 27.2354 7.50195 29.5718C6.90233 30.5195 6.07807 30.9846 6.07807 30.9846C5.91671 31.0754 5.35742 31.3894 4.64503 31.4385C3.44303 31.5219 1.68633 30.9355 1.12888 29.3059C0.681451 27.9979 1.13438 26.5091 2.26028 25.6374C1.8972 25.7717 0.929003 26.1849 0.370637 27.1817C-0.611317 28.9354 0.653946 30.8725 0.783223 31.0652C1.81285 32.6039 3.72633 33.1922 5.30241 32.9448C7.49462 32.6011 8.62602 30.7094 8.97809 30.1202C9.09545 29.9238 9.44752 29.3096 9.70333 28.3332C10.4276 25.5577 9.52729 23.0407 8.87449 21.2444C8.14009 19.2239 7.16272 17.6444 6.30821 16.5003L6.30912 16.4994Z" fill="white"/>
<path d="M18.7389 25.637C19.8639 26.5088 20.3177 27.9966 19.8703 29.3056C19.3128 30.9351 17.5552 31.5215 16.3541 31.4382C15.6417 31.3891 15.0824 31.075 14.9211 30.9842C14.9211 30.9842 14.0968 30.5201 13.4972 29.5715C12.0192 27.236 12.7059 21.9231 14.2655 21.5757C14.5562 21.5109 14.8807 21.6183 15.0962 21.7943C15.6124 22.2168 15.6738 23.1914 15.2667 24.2965C15.4602 24.1122 16.1066 23.4507 16.2331 22.378C16.3945 21.0097 15.5821 20.0518 15.4492 19.9008C16.5531 20.8902 18.0155 21.0634 19.0185 20.4325C19.7951 19.9434 20.0316 19.1152 20.0958 18.8447C20.0197 18.9503 19.4934 19.6534 18.6243 19.6822C18.5436 19.6849 18.1612 19.6923 17.6689 19.4255C17.3113 19.2329 16.5247 18.174 15.9828 16.499C16.5247 14.8241 17.3113 13.7662 17.6689 13.5726C18.1622 13.3067 18.5436 13.3141 18.6243 13.3159C19.4934 13.3447 20.0197 14.0478 20.0958 14.1534C20.0316 13.8838 19.7951 13.0547 19.0185 12.5656C18.0155 11.9347 16.5531 12.1079 15.4492 13.0973C15.5821 12.9463 16.3945 11.9884 16.2331 10.6201C16.1066 9.54735 15.4602 8.88683 15.2667 8.70155C15.6729 9.80675 15.6124 10.7813 15.0962 11.2038C14.8816 11.3798 14.5562 11.4863 14.2655 11.4224C12.7059 11.075 12.0201 5.76302 13.4972 3.42664C14.0968 2.47893 14.9211 2.01388 14.9211 2.01388C15.0824 1.92309 15.6417 1.60905 16.3541 1.55995C17.5561 1.47657 19.3128 2.06298 19.8703 3.69252C20.3177 5.00059 19.8648 6.48931 18.7389 7.36105C19.1019 7.22673 20.0701 6.81355 20.6285 5.81675C21.6105 4.06308 20.3452 2.12598 20.2159 1.93329C19.1872 0.395464 17.2746 -0.192799 15.6977 0.054549C13.5054 0.398243 12.374 2.28995 12.022 2.87914C11.9046 3.07553 11.5525 3.68974 11.2967 4.66616C10.5724 7.44165 11.4728 9.95868 12.1256 11.755C12.86 13.7754 13.8373 15.3549 14.6919 16.499C13.8383 17.6441 12.86 19.2227 12.1256 21.2431C11.4728 23.0394 10.5724 25.5564 11.2967 28.3319C11.5516 29.3093 11.9037 29.9226 12.022 30.119C12.374 30.7081 13.5054 32.5999 15.6977 32.9435C17.2746 33.1909 19.1872 32.6026 20.2168 31.0639C20.3452 30.8712 21.6114 28.9341 20.6294 27.1804C20.0711 26.1836 19.1019 25.7695 18.7398 25.6361L18.7389 25.637Z" fill="white"/>
<path d="M10.8036 16.6709C12.6767 16.5023 12.5658 14.7773 12.5658 14.7773C12.4274 14.9154 11.6654 15.6509 10.468 15.637C9.31187 15.6241 8.58113 14.9228 8.43535 14.7773C8.43535 14.7773 8.3235 16.5014 10.1976 16.6709C8.3235 16.8395 8.43535 18.5645 8.43535 18.5645C8.58113 18.4181 9.31187 17.7177 10.468 17.7048C11.6654 17.6909 12.4283 18.4264 12.5658 18.5645C12.5658 18.5645 12.6767 16.8404 10.8036 16.6709Z" fill="white"/>
</svg>
