<svg width="11" height="11" viewBox="0 0 11 11" fill="none" xmlns="http://www.w3.org/2000/svg">
<path d="M7.55058 3.32717C7.55058 4.48683 6.6104 5.42694 5.45058 5.42694C4.29077 5.42694 3.35058 4.48683 3.35058 3.32717C3.35058 2.16752 4.29077 1.2274 5.45058 1.2274C6.6104 1.2274 7.55058 2.16752 7.55058 3.32717ZM8.6041 3.29071C8.6041 1.55117 7.19378 0.141016 5.4541 0.141016C3.71442 0.141016 2.3041 1.55117 2.3041 3.29071C2.3041 4.33854 2.81589 5.26675 3.60289 5.83872C1.85206 6.48513 0.550144 8.01765 0.307984 9.89702C0.272898 10.1693 0.475675 10.406 0.743917 10.4375C1.01106 10.4688 1.26536 10.2877 1.30025 10.0169C1.55963 8.00391 3.33048 6.47539 5.47142 6.47539C7.59973 6.47539 9.34813 7.99934 9.60795 10.0169C9.64281 10.2876 9.89711 10.4688 10.1643 10.4375C10.4325 10.406 10.6353 10.1694 10.6002 9.89705C10.3573 8.01101 9.0627 6.47498 7.31419 5.83286C8.09604 5.25993 8.6041 4.33471 8.6041 3.29071Z" fill="black" stroke="black" stroke-width="0.3"/>
</svg>
