<svg width="11" height="10" viewBox="0 0 11 10" fill="none" xmlns="http://www.w3.org/2000/svg">
<path d="M5.49648 5.28592C6.73912 5.28592 7.74648 4.27867 7.74648 3.03616C7.74648 1.79364 6.73912 0.786387 5.49648 0.786387C4.25384 0.786387 3.24648 1.79364 3.24648 3.03616C3.24648 4.27867 4.25384 5.28592 5.49648 5.28592ZM5.5 0C7.15685 0 8.5 1.34301 8.5 2.99969C8.5 4.10173 7.90565 5.06497 7.01998 5.58642C8.86377 6.14104 10.2488 7.69545 10.4974 9.6252C10.5209 9.8083 10.3845 9.97497 10.1927 9.99747C10.0008 10.02 9.82619 9.88979 9.80262 9.70669C9.5328 7.61152 7.71819 6.03437 5.51732 6.03437C3.305 6.03437 1.46691 7.61496 1.19738 9.70671C1.17379 9.88981 0.999144 10.02 0.8073 9.99747C0.615456 9.97495 0.479061 9.80827 0.502653 9.62517C0.750315 7.7031 2.14306 6.15153 3.98977 5.59133C3.09859 5.07184 2.5 4.10567 2.5 2.99969C2.5 1.34301 3.84315 0 5.5 0Z" fill="white"/>
</svg>
